<svg xmlns:dc="http://purl.org/dc/elements/1.1/" xmlns:cc="http://creativecommons.org/ns#" xmlns:rdf="http://www.w3.org/1999/02/22-rdf-syntax-ns#" xmlns:svg="http://www.w3.org/2000/svg" xmlns="http://www.w3.org/2000/svg" viewBox="0 0 762 762" fill="none"><metadata><rdf:RDF><cc:Work><dc:format>image/svg+xml</dc:format><dc:type rdf:resource="http://purl.org/dc/dcmitype/StillImage"/><dc:title>Adventurer</dc:title><dc:creator><cc:Agent><dc:title>Lisa Wischofsky</dc:title></cc:Agent></dc:creator><dc:source>https://www.instagram.com/lischis_adventures/</dc:source><cc:license rdf:resource="https://creativecommons.org/licenses/by/4.0/"/></cc:Work><cc:License rdf:about="https://creativecommons.org/licenses/by/4.0/"><cc:permits rdf:resource="https://creativecommons.org/ns#Reproduction"/><cc:permits rdf:resource="https://creativecommons.org/ns#Distribution"/><cc:permits rdf:resource="https://creativecommons.org/ns#DerivativeWorks"/><cc:requires rdf:resource="https://creativecommons.org/ns#Notice"/><cc:requires rdf:resource="https://creativecommons.org/ns#Attribution"/></cc:License></rdf:RDF></metadata><mask id="avatarsRadiusMask"><rect width="762" height="762" rx="0" ry="0" x="0" y="0" fill="#fff"/></mask><g mask="url(#avatarsRadiusMask)"><path d="M396.01 164.85c37.82 4.9 74.21 19.64 104.8 42.39 6.15 4.84 12.48 9.33 18.02 14.92 23.77 21.98 42.73 49.02 55.13 78.95 9.35 22.31 14.72 46.04 16.64 70.14 6.62.81 13.05 2.14 19.12 5 15.54 6.93 27.08 20.94 31.78 37.21 2.63 9.56 3.56 19.75 1.72 29.55-2.96 18.76-13.72 36.13-29.37 46.92-10.94 7.65-24.49 12.03-37.86 11.68-5.13-.05-10.04-1.6-15.13-1.79-1.85 2.17-3.23 4.84-4.76 7.25-18.66 29.62-44.57 54.51-74.64 72.4-28.1 16.73-59.9 27.16-92.46 30.32-11.08.7-21.87 2.05-32.98.74-51.69-2.3-102.07-23.44-140.15-58.43-29.03-26.55-50.84-60.83-62.54-98.39-7.09-22.85-10.62-46.78-10.07-70.71.52-40.34 12.53-80.58 33.94-114.76 19.1-30.81 45.91-56.58 77.2-74.83 29.63-17.28 63.35-27.68 97.59-29.87 14.66-1.47 29.44-.37 44.02 1.31Z" fill="#000"/><path d="M363 169.06c48.47-1.39 97.32 14.7 135.81 44.12 6.55 4.06 11.72 9.49 17.36 14.64 24.33 22.63 43.2 50.95 54.93 82.02 7.43 19.61 11.86 40.2 13.56 61.09-8.89.74-17.34 2.34-25.38 6.38-2.19 1.03-1.89 4.95.68 5.23 2.35.23 4.98-1.51 7.24-2.2 14.62-5.37 31.32-4.35 44.78 3.68 11.69 6.78 20.09 18.16 23.89 31.06 2.6 8.25 2.68 17.41 1.76 25.95-2.5 17.35-12.35 33.73-26.73 43.81-15.71 11.33-37.17 14.64-54.93 6.2-3.17-1.43-5.94-3.58-9.08-5.05-2.95-1.09-4.88 2.79-2.7 4.75 3.17 2.76 7.34 4.52 11 6.56-20.14 34.15-49.45 62.7-84.41 81.47-30.2 16.31-64.44 25.53-98.78 26.15-27.63.72-55.33-4.04-81.21-13.72-30.32-11.24-57.84-29.43-80.37-52.6-22.67-23.37-39.92-51.88-50.2-82.77-14.96-44.64-14.91-94.01.27-138.59 11.05-33.06 30.28-63.21 55.37-87.39 29.67-28.73 67.65-48.54 108.13-56.67 12.8-2.52 25.94-4.24 39.01-4.12Z" fill="rgba(236, 173, 128, 1)"/><path d="M605.03 404.4c2.63-.1 3.44 3.8 1.36 4.98-3.69 1.83-7.82 2.77-11.64 4.35-5.82 2.04-11.28 4.76-16.68 7.72 4.29 2.34 8.86 4.74 12.71 7.76 2.58 2.09 4.85 4.35 5.33 7.8-.26 3.59-2.73 6.55-5.45 8.69-5.86 4.66-13.92 7.18-20.79 10.26-1.75.62-4.43 1.99-5.59-.26-1.02-1.74-.06-3.11 1.57-3.87 6.65-3.3 14.86-5.62 20.79-10.16 1.37-1.14 3.39-2.74 3.61-4.62-4.07-5.63-12.42-8.59-18.23-12.09-2.34-1.72-2.29-4.24-.16-6.13 7.27-5.64 16.98-9.26 25.57-12.38 2.42-.83 5.03-1.95 7.6-2.05Z" fill="#000"/><g transform="translate(-161 -83)"><path d="M589.31 432.68c12.94 7.41 23.39 19.43 28.46 33.49 5.72 14.36 5.72 30.62.54 45.13-1.04 2.89-2.88 5.22-6.28 4.77-15.08-.73-29.98.14-45.06.56-10.03 1.09-20.04 2.15-30 3.79-10.45 1.82-20.62 4.13-30.98 6.08-4.32-.12-5.27-4.23-7.16-7.33-12.06-22.95-8.72-52.48 8.27-72.08 9.79-11.52 23.84-19.77 38.83-22.06 14.73-2.65 30.42.22 43.38 7.65Z" fill="#000"/><path d="M558 429.86c14.45-.01 28.8 6.03 39.38 15.78 10.02 9.25 16.53 21.86 18.51 35.34 1.2 10.01.35 20.16-3.45 29.56-1.1-.13-2.19-.25-3.28-.37 1.67-5.12 2.73-10.04 1.39-15.4-1.92-10.81-10.74-19.63-21.59-21.4-5.35-.62-10.64-.41-15.57 1.95-8.02 3.55-13.84 11.08-15.32 19.72-1.09 5.72-.02 11.42 2.43 16.64-11.45 1.04-22.74 2.78-33.99 5.18-6.74 1.22-13.36 3.24-20.16 4.12-7.35-12.03-10.84-27.07-8.29-41.03 2.08-13.36 8.9-25.89 18.96-34.92 11.08-9.99 26.04-15.66 40.98-15.17Z" fill="#fff"/><path d="M392.02 447.07c12.51 1.09 24.52 6.68 33.45 15.49 9.47 9.27 15.55 22.17 16.25 35.44.8 10.74-1.59 21.51-6.91 30.87-1.13 1.88-2.87 4.02-5.01 4.71-3.02.81-6.59-.16-9.6-.83-8.69-2.1-17.43-3.85-26.28-5.18-12.88-.84-26.08-.89-38.96.07-4.8.32-9.78 1.33-14.56.99-2.32-1.08-3.7-4.2-4.57-6.47-3.37-8.83-4.98-18.73-3.32-28.12 2.02-15.04 10.61-28.84 23.08-37.45 10.55-7.28 23.66-10.83 36.43-9.52Z" fill="#000"/><path d="M401.48 454.74c12.79 3.91 23.68 13.17 29.58 25.18 4.64 9.38 6.55 20.52 4.31 30.82-1.3 6.2-3.31 12.86-7.13 18l-4.14-.69c4.13-4.49 6.91-9.85 6.82-16.08.38-10.49-7.04-19.98-17.18-22.44-10.75-2.93-22.53 3.32-26.51 13.64-2.55 5.93-1.92 12.1.33 17.99-7.6.29-15.02-.37-22.59.38-7.31.65-14.63 1.12-21.93 1.8-.66-1.14-1.33-2.25-1.89-3.45-7.25-17.69-2.93-38.73 10.38-52.36 12.64-13.18 32.51-18.39 49.95-12.79Z" fill="#fff"/></g><g transform="translate(-161 -83)"><g fill="#000"><path d="M545.03 378.5c24.7.94 48.04 8.97 69.45 20.99 2.26 1.32 4.92 2.49 6.79 4.33 1.3 2.39-.38 5.13-3.2 4.19-16.58-6.21-33.56-9.63-51.06-12.02-20.3-2.34-39.92-3.68-60.2-.13-3.2.44-6.87 2.16-10.08 1.59-2.66-1.69-1.2-6.1 1.29-7.37 13.63-9.33 30.79-12.1 47.01-11.58ZM407.99 396.92c3.51.64 6.6 1.92 9.63 3.78-.15 1.2-.26 2.4-.33 3.62-2.7.74-5.46 1.12-8.24 1.34-13.17 1.15-26.45 5.11-38.81 9.69-12.23 4.75-24.78 10.64-35.19 18.71-2.82 2.03-4.13 4.82-8.08 4.47-.5-.9-1-1.79-1.51-2.67.89-1.59 1.68-3.17 2.76-4.64 9.55-13.17 23.64-23.22 38.61-29.35 12.7-5.15 27.61-8.05 41.16-4.95Z"/></g></g><g transform="translate(-161 -83)"><path d="M550 573.51c1.46.01 3.54-.33 4.63.86 1.79 1.55.73 4.5-1.6 4.72-5.31.8-10.73.62-16.06 1.31-4.86.62-9.72 1.26-14.57 1.91 3.05 6.5 5.04 13.42 6.07 20.52 1.1 9.46.49 18.83-4.44 27.2-4.08 6.95-11.07 11.69-18.97 13.18-9.3 1.51-18.57-.3-27.06-4.23-13.14-6.16-23.89-15.8-32.58-27.32-6.65 4.89-13 10.1-18.5 16.27-1.57 1.58-3.5 3.91-5.73 1.87-1.86-1.74-.28-4.03 1.06-5.54 9.67-10.78 21.93-19.53 34.63-26.41 28.47-15.25 61.04-22.5 93.12-24.34Z" fill="#000"/><path d="M516.86 583.39c1.15 3.94 2.8 7.7 3.96 11.64 2.13 6.95 2.55 14.24 1.79 21.44-1.11 7.19-4.63 14.31-11.1 18.07-7.43 4.49-16.62 4-24.65 1.5-15.04-4.85-26.95-15.23-36.46-27.58 9.26-5.81 19.07-10.67 29.29-14.53 1.72 2.36 3.27 5.09 5.42 7.07 1.42 1.48 4.45.11 4.09-2.01-.39-2.38-2.78-4.36-3.81-6.56-.12-.47.13-.76.75-.88 9.98-3.51 20.34-6.12 30.72-8.16Z" fill="#EA869E"/></g><g transform="translate(-161 -83)"/><g transform="translate(-161 -83)"><path fill-rule="evenodd" clip-rule="evenodd" d="M509.54 150.52c-5.98-1.82-12.2-3.63-18.44-4.17-1.89-.11-3.06 1.35-3.21 3.11-.66 7.56-.72 15.21-.47 22.79-6.09 1.83-11.08 4.7-15.89 8.83.017-.534.04-1.064.062-1.592.158-3.688.309-7.216-1.362-10.698-2.72-6.13-9.62-10-16.27-9.02-4.3.55-7.87 3.49-10.18 7.03-3.68 5.96-5.31 13.06-3.11 19.89-6.43-4.51-15.79-7.04-23.46-4.8-.14-4.17-.68-8.6-2.99-12.19-.9-1.26-2.24-1.71-3.67-1.07-7.39 3.51-14.13 7.99-18.83 14.84-.244-.248-.48-.497-.712-.741-1.299-1.37-2.49-2.626-4.458-3.169-4.96-1.37-10.56.36-14.6 3.34-3.576 2.737-6.134 7.219-8.366 11.133l-.324.567c-3.03-5.68-7.67-9.71-14.2-10.62-9.85-1.25-19.94 7.1-20.64 17.01-.55 5.94 1.59 11.32 5.86 15.41-5.86 2.86-11.93 7-15.02 12.92-3.2 6.18-3.77 13.5-1.38 20.07-4.64 3.72-5.97 10.37-4.14 15.87.804 2.574 2.389 4.64 3.999 6.738l.331.432-.585.358c-2.221 1.356-4.294 2.622-5.885 4.802-3.99 5.6-4.39 13.59-.17 19.21-12.6 17.67-21.51 37.66-24.72 59.21-2.21 13.52-1.84 27.5.77 40.95.158.858.354 1.707.549 2.552.61 2.634 1.211 5.235.621 7.968-.775 3.625-1.782 7.205-2.788 10.782-.423 1.506-.847 3.01-1.252 4.518-7.75 28.81-13.44 58.46-16.01 88.2-1.42 14.62-2.29 29.32-2.77 44 .05 4.53-.093 9.051-.237 13.571-.111 3.482-.222 6.964-.243 10.449.48 34.72 1.5 68.44 7.18 102.81 3.61 20.3 8.95 40.27 15.86 59.69 3.02 8.92 6.75 17.49 11.54 25.6 1.08 1.82 2.63 2.27 4.55 1.4 1.344-1.312 1.164-2.74.967-4.308-.049-.392-.099-.792-.127-1.202-1.21-8.31-2.36-16.58-2.53-24.99-.9-17.3-.52-34.8 1.88-51.97.343-2.38.672-4.765 1-7.15 1.048-7.607 2.097-15.224 3.65-22.73-.085 4.057.404 7.896.904 11.817.211 1.656.423 3.326.596 5.033 3.3 23.51 7.92 46.38 16.59 68.56 2.513 6.313 5.272 12.496 8.036 18.688 1.062 2.38 2.124 4.762 3.174 7.152.403.838.79 1.696 1.179 2.558 1.046 2.319 2.105 4.666 3.541 6.722 1.567 1.925 3.853 1.63 6.053 1.346.383-.05.763-.099 1.137-.136 28.01-4.18 56.21-7.5 84.47-9.41 17.61-1.42 35.34-1.86 53-1.4 18.6-.03 37.47 3.13 55.53 7.47 5.802 1.462 11.493 3.057 17.159 4.644 13.515 3.785 26.889 7.531 41.291 9.356 19.98 2.76 40.7.31 59.54-6.85 12.6-4.79 24.21-13.06 34.31-21.88 9.52-8.6 18.3-17.81 25.72-28.31 6.45-8.87 11.86-18.44 14.9-29.04 1.85 7.02 3.32 14.13 4.19 21.34 1.14 7.362 1.029 15.078.921 22.668-.027 1.864-.053 3.72-.061 5.562-.59 10.85-1.33 21.41-4.53 31.81-.068.291-.149.595-.233.906-.468 1.751-1 3.743.393 5.144 1.62 1.53 3.57.71 4.75-.94 7.55-10.17 13.81-21.41 19.35-32.78 16.81-35.16 26.6-74.55 32.23-112.99 4.88-33.18 6.56-66.68 5.97-100.2a16.994 16.994 0 0 1-.056-1.261c-.025-1.211-.052-2.523-.674-3.439-1.109-.562-2.011-.307-3.024-.021-.284.08-.577.163-.886.231-5.37 15.63-16.69 28.82-32.06 35.25-13.63 5.88-28.54 5.72-42.63 1.56 6.92-21.15 13.61-42.61 18.45-64.33 3.9-16.93 6.43-33.99 8.89-51.17 16.39-.35 32.61 7.25 41.66 21.1.98 1.59 2.32 2.65 3.81 3.72.344-.365.695-.674 1.025-.964 1.082-.951 1.944-1.709 1.615-3.616-5.03-46.98-14.71-93.75-30.19-138.43 5.58-.17 10.82-1.35 14.99-5.27 4.03-4.22 4.66-10.68 3.53-16.16-.74-3.83-2.68-6.92-4.77-10.12 6.08-1.02 12.29-2.7 15.51-8.49 3.8-7.86 1.25-17.84-6.24-22.55l.437-.634c1.395-2.014 2.708-3.908 3.143-6.426 1.3-6.5-2.13-13.75-6.54-18.41-4.57-4.95-11.57-6.57-18.03-4.94 2.28-4.61 3.55-9.45 3.14-14.63-.16-4.36-1.89-8.04-3.79-11.86 2.68-4.5 4.92-9.9 5.18-15.17.162-2.905-2.851-3.523-5.167-3.998a40.18 40.18 0 0 1-.723-.152c-10.52-1.77-22.78-2.88-32.96.88-.65-5.69-1.96-11.35-3.95-16.72-.35-1.68-2.57-2.51-4.02-1.9-10.65 4.25-21.44 8.88-26.94 19.66-3.81-.37-7.47-.39-11.28.04 2.39-4.37 4.35-8.66 4.08-13.77.15-6.07-2.99-12.17-9.12-13.9-7.3-2.21-17.69-.08-21.79 6.94-2.314 3.607-2.936 7.381-3.602 11.429-.097.588-.194 1.182-.298 1.781a313.555 313.555 0 0 1-2.237-2.858c-4.142-5.333-8.194-10.552-14.083-14.252-6.41-3.83-14.17-5.47-21.35-2.79-4.25 1.42-6.99 4.48-9.47 8.04-5.94-5.53-12.68-4.42-20.01-3.16 2.17-4.62 4.1-8.99 3.53-14.26-.83-9.04-10.74-15.13-19.24-12.62-6.58 3.12-10.95 8.97-13.75 15.55-3-5.29-7.25-9.73-12.13-13.32-4.84-3.37-11.09-4.56-16.44-1.6-2.466 1.347-3.615 3.471-4.872 5.794l-.378.696c-4.17-5.51-9.5-9.9-16.18-11.95Zm-26.744 220.267c-.902-13.654-1.808-27.353-3.736-40.897-6.25 28.79-8.18 58.76-7.35 88.17.14 2.15-.58 4.22-2.78 4.95-2.313.357-4.746.22-7.106.087l-.844-.047c-6.011-.48-12.054-.682-18.09-.883-2.139-.072-4.276-.143-6.41-.227-7.396-.566-14.811-.844-22.224-1.121-4.754-.177-9.508-.355-14.256-.609-2.64-.156-5.245.035-7.856.226-1.405.102-2.811.205-4.224.254-1.148-.041-1.885-1.13-2.527-2.078-.141-.208-.278-.41-.413-.592-8.75-14.03-13.52-29.71-15.71-46.02-1.88-12.32-2.41-24.59-2.6-37.03-3.56 16.22-6.67 32.34-6.72 49.03.005 1.561 0 3.132-.005 4.711-.027 8.84-.056 17.901 1.565 26.479.019.296.062.635.108.995.174 1.366.388 3.043-.538 3.905-2.056 1.835-4.751 1.764-7.368 1.695-.577-.015-1.15-.03-1.712-.025-8.266-.38-16.46.054-24.753.493l-1.277.067c-3.288.037-5.446 1.787-7.814 3.707l-.636.513c-.392.366-.798.705-1.196 1.037-1.451 1.211-2.805 2.341-3.064 4.443-7.07 40.7-2.59 83.23 13.35 121.37 15.02 36.53 40.17 68.59 71.96 92.01 27.83 20.65 60.72 34.43 94.93 39.9 15.78 2.72 31.71 3.04 47.68 2.39 35.04-2.1 69.48-12.82 99.55-30.94 8.32-4.93 16.04-10.61 23.73-16.44 7.04-39.11 9.69-79.62 11-119.31.348-5.358.369-10.716.39-16.08.01-2.645.021-5.291.07-7.94.548-10.862.494-21.825.44-32.734-.012-2.419-.024-4.834-.03-7.246.01-3.35-.2-6.69-.49-10.02-7.556-3.138-15.273-5.726-23.012-8.321-1.879-.63-3.759-1.26-5.638-1.899-3.05-1.16-6.11-2.38-6.87-5.93-2.37-9.49-6.21-18.37-10.25-27.25l.056.951c.463 7.77.999 16.761-1.566 24.119-.75 2.4-3.25 3.19-5.55 2.92-9.59-1.36-19.34-2.54-29.03-2.84-.306-.029-.625-.049-.951-.07-1.552-.096-3.251-.202-4.309-1.4-.74-1.08-.767-2.653-.791-4.064a24.474 24.474 0 0 0-.039-1.196c.26-23.25-6.95-45.62-16.81-66.43 1.25 20.59 1.02 40.9-2.75 61.24l-.028.13c-.342 1.557-.722 3.286-2.152 4.22-1.994 1.375-4.737 1.038-7.082.75-.196-.024-.388-.048-.578-.07-15.258-2.517-31.112-1.183-46.776.136-5.618.473-11.211.944-16.744 1.234-3.22.21-5.76-2.07-6.27-5.18-2.405-11.813-3.639-23.96-4.862-36.005-.273-2.678-.544-5.351-.828-8.015l-.214-3.223Z" fill="#000"/><path d="M493.52 152.3c4.7.8 9.4 2.04 13.98 3.37 7.95 2.27 14.5 8.8 17.44 16.44.81 3.83 1.51 7.6 3.04 11.24-5.88-1.78-11.8-2.92-17.91-1.47-1.39-2.61-2.68-5.05-5.22-6.74-3.53-2.5-7.47-3.11-11.67-3.52-.06-6.42-.3-12.93.34-19.32Z" fill="#A0CC59"/><path d="M543.4 161.59c3.6 2.28 7.32 5.77 9.78 9.24 2.13 2.89 2.64 6.52 4.54 9.46 1.2.41 2.45.84 3.58 0 1.06-.89 1.44-2.58 1.96-3.83 1.76-5.4 4.61-10.54 9.2-14.04 5.18-5.2 15.03.8 14.44 7.59-.33 5.55-3.89 10.76-6.42 15.48-.86 1.42.06 2.32.47 3.7 4.82-.33 9.21-2.25 14.05-2.4 3-.11 7.01-.46 9.29 1.89 3.73 3.58 6.43 8.43 5.78 13.76-.51 5.12-3.15 11.3-8.12 13.51-4.58 2.38-10.74.47-15.93 1.24-.36 1.25-1.53 3.07-.87 4.33 2.58 3.4 5.65 5.84 7.41 9.91 1.99 3.91.8 8.47-.81 12.29-2 4.82-6.52 8.4-11.7 9.12-8.41.88-16-3.88-19.75-11.28-2.6-5.21-2.01-10.16-2.23-15.74-1.01-2.13-5.61-1.6-5.71 1.28-.45 4.98-1.54 10.1-3.57 14.68-1.89 3.95-5.52 6.08-9.63 7.15-4.73 1.41-9.76 1.38-14.16-1.01-3.45-2.66-5.08-7.75-4.78-11.99.81-2.76 2.25-4.91 2.01-7.94-.02-2.39-1.46-4.63-1.4-6.98 2.99-4.24 7.12-6.09 10.94-9.21 1.33-1.06.54-2.89.57-4.33-1.11.03-2.22.09-3.32.17-4.78 2.32-11.32 5.97-16.83 4.93-5.73-3.28-10.94-6.97-17.45-8.72 6.63-3.63 12.69-9.51 15.41-16.66 6.42-1.18 12.4-.37 18.28 2.4 2.23.87 4.97 2.8 7.41 2.16 2.09-1.62 1.45-3.84.23-5.78-3.67-5.67-5.69-12.19-5.25-18.98.27-2.27.99-4.89 3.09-6.13 2.86-1.7 6.79-.99 9.49.73Z" fill="#fff"/><path d="M454.921 165.29c4.77-.65 9.85 3.09 11.03 7.71 1.37 4.78-.52 10.26-2.24 14.75-.66 1.89-1.97 4.12-1.57 6.14 1.4 1.87 3.45 2.02 4.96.2 3.56-4.18 7.06-8.25 11.69-11.32 5.89-4.1 12.62-6.64 19.79-4.36 3.24 1.1 6.74 3.83 5.85 7.68-1.48 4.28-5.13 7.95-8.64 10.69-3.55 2.81-7.72 4.07-11.62 6.2-.79 1.46-.68 3.2.35 4.51 4.37 1.65 9.04 1.58 13.34 3.69 6.47 2.99 13.69 7.38 17.47 13.6 2.36 3.59.69 7.73-2.1 10.45-4.13 3.94-10.75 5.06-16.23 5.23-3.35-.23-7.92-.43-10.21-3.25-3.62-3.82-7.19-7.46-11.43-10.63-1.32-.86-3.9-.26-3.98 1.63-.54 1.83.9 3.14 2.09 4.29 4.34 3.78 9.1 7.93 12.04 12.97 2.7 4.81 3.74 11.21 1.3 16.33-1.06 2.28-4.36 3.18-6.56 3.84-6.31 1.41-12.87 1.1-18.46-2.42-3.1-1.8-4.65-4.81-5.77-8.09-1.7-6.12-.34-13.18 2.19-18.91.66-1.73 1.42-3.11.39-4.91-1.55-.89-2.75-1.11-4.24.06-1.01 1.33-1.76 2.89-2.6 4.33-3.92 7.18-10.44 13.21-16.92 18.09-3.44 2.39-8.38 5.53-12.73 4.28-4.14-1.35-5.33-5.79-3.88-9.61 2.36-6.09 6.71-12.32 11.66-16.59 3.37-2.99 7.2-3.93 9.53-7.57-.46-.91-.93-1.82-1.39-2.73-1.69.05-3.15-.17-4.66.81-6.69 3.42-14.84 6.01-22.41 5.39-4.01-.54-9-1.68-10.58-5.91.66-4.39 3.15-9.2 7.36-11.12 4.04-1.92 8.84-2.46 13.27-2.57 3.4-.1 6.65.89 10.02.95 2.79-.23 3.7-3.95 1.28-5.44-2.91-1.48-6.95-1.01-10.14-1.81-5.02-1.23-10-2.7-12.31-7.79 2.97-6.13 9.84-7.93 16.15-7.23 6.43.49 11.65 3.68 16.36 7.87 1.75 1.8 6.04 1.04 6.19-1.76-1.26-5.17-4.17-10.54-2.72-15.99 1.03-4.95 3.75-10.38 9.08-11.68Z" fill="#fff"/><path d="M410.729 174.87c.4 3.09.51 6.16.49 9.27-3.41 2.59-6.41 5.24-6.78 9.81-.01 4.6 2.96 7.24 6.16 9.99-4.81 1.24-8.88-1.38-13.64-.74-2.4.25-4.8.73-7.18 1.18 2.19-4.32 3.06-8.49 3.65-13.25 3.46-7.65 9.77-12.81 17.3-16.26Z" fill="#A0CC59"/><path d="M621.179 182.53c5.65-1.23 11.61-.46 16.44 2.83 7.62 4.99 12.88 14.28 19.17 20.9 1.62 1.07 4.37.58 4.59-1.7.29-5.98-.04-13.28 3.85-18.34 3.45-4.37 9.54-4.68 14.6-3.82 4.18 1.16 5.56 5.7 5.44 9.6-.61 7.07-5.15 13.71-10.88 17.73.13 1.2-.41 3.46.83 4.13 1.27 1.36 3.48-.21 4.81-.81 7.99-4.63 18.37-4.25 26.03.86 4.14 2.6 6.01 9.22 3.17 13.32-2.74 3.37-8.09 4.55-12.21 5.01-4.92.72-9.3-.69-14.1-.76-2.81.16-3.36 4.21-.88 5.42 3.88 2.02 7.78 2.8 11.14 5.91 2.98 2.97 5.43 6.48 6.28 10.68.92 3.82.19 8.39-3.44 10.55-4.79 3.19-11.83 4.41-16.63.58-7.58-5.56-10.1-13.7-12.87-22.19-.71-2.98-5.97-2.84-5.6.54-.35 10.38.39 19.57-5.08 28.92-2.1 4.16-7.74 5.02-11.88 4.58-5.18-.84-7.55-5.75-8.32-10.44-1.32-10.27 3.67-20.65 9.67-28.69 1.2-1.46 1.03-3.04-.55-4.11-1.73-1.44-4.98 1.06-6.68 1.84-8.45 4.09-17.65 8.88-27.33 6.7-3.65-.81-9.04-2.01-10.47-6-1.87-4.44-3.43-8.8-6.59-12.55 3.7-.14 7.18-.36 10.6-1.93 3.09-1.46 4.83-3.91 8.19-4.73 4.65-1.16 9.8-.99 14.52-.29 2.79.38 6.32 1.97 9.02.93 1.65-.83.82-3.07.44-4.43-7.29-2.19-13.88-5.38-20.28-9.48 0-4.65-.81-8.41-3.12-12.45 1.5-3.93 3.95-7.1 8.12-8.31ZM385.639 185.42c1.64.96 1.49 2.92 1.7 4.57.4 6.95-2.96 12.92-7.16 18.16-.98 1.42-2.75 2.95-2.29 4.83.32 1.39 1.91 1.89 3.1 2.27 3.41-1.35 6.69-4.68 10.47-5.7 2.79-.69 5.86-.6 8.72-.75-3.5 4.56-5.98 9.47-5.37 15.4-5.4 4.33-8.09 10.12-11.04 16.18-3.1 1.37-6.13 2.88-9.26 4.19-10.44 4.93-19.68 11.32-29.25 17.64-1.12-2.39-2.32-4.47-2.44-7.17-.18-2.88.76-5.28 1.21-8.05-.51-2.49-3.72-3.33-5.43-1.39-3.22 2.92-5.71 6.05-10.6 5.11-5.38-1.43-6.8-7.92-5.81-12.74 1.09-8.97 9.18-15.24 17.36-17.62 2.28-.24 3.18-3.4 2.26-5.17-1.87-2.32-4.95-3.82-6.43-6.66-2.05-4.67-1.64-10.37 1.89-14.22 3.44-3.72 8.73-6.32 13.74-4.15 5.99 1.98 8.39 8.02 9.4 13.74.27 2.64 4.61 2.12 5.2-.11 1.72-5.98 4.9-12.41 9.68-16.52 2.68-1.84 7.33-3.6 10.35-1.84Z" fill="#fff"/><path d="M555.351 189.33c4.75-1.67 10.4-1.16 14.66 1.65 4.59 3.54 7.7 9.21 4.95 14.96-4.5 8.75-15.38 12.58-24.63 9.64-3.33-1.93-5.63-5.67-5.48-9.56.31-6.99 3.51-14.19 10.5-16.69Z" fill="#000"/><path d="M724.599 191.37c2.11 7.28 4.301 16.44 1.901 23.83-4.21-1.7-7.79-2.19-12.18-.72-2.82-4.17-6.48-6.51-11.05-8.43 5.16-7.77 12.879-11.5 21.329-14.68Z" fill="#A0CC59"/><path d="M558.13 194.05c2.96-.98 6.49.13 9.01 1.8 2.68 1.9 4 5.48 2.12 8.42-2.65 3.63-6.7 6.19-11.24 6.52-2.02.13-4.9.36-6.23-1.53-3.51-5.25.43-13.64 6.34-15.21Z" fill="#F0DF83"/><path d="M452.499 201.62c3.86-.98 8.12-1.1 11.97.02 4.33 1.35 7.3 5.07 8.45 9.35.86 4.6-1.66 9.04-5.43 11.57-4.26 2.74-9.36 4.6-14.49 4.35-3.43-.02-8.23-.45-10.24-3.72-.82-2.78-.22-6.13-.18-9.02.4-5.82 4.19-11.01 9.92-12.55Z" fill="#000"/><path d="M453.18 207.21c3.38-1.12 7.89-1.29 11.05.54 3.21 1.97 3.87 6.93.87 9.36-4.59 3.58-10.94 4.86-16.56 3.36-1.98-4.5-.38-11.49 4.64-13.26Z" fill="#F0DF83"/><path d="M766.09 208.5c-.83 3.18-1.9 6.18-3.23 9.19-3.74-1.64-7.11-3-11.11-1.14-5.87 2.79-7.92 8.06-10.01 13.79-2.7-4.68-6.1-8.49-10.23-11.94 1.16-2.94 1.71-5.67 1.94-8.82 9.71-5.06 22.3-2.74 32.64-1.08Z" fill="#A0CC59"/><path d="M654.481 211.55c6.4-2 15.32 1.38 18.96 7.03 3.27 4.63 2.77 11.51-1.62 15.26-8.58 7.43-25.1 2.81-27.33-8.77-1.12-6.68 3.68-12.16 9.99-13.52ZM356.261 214.24c4.87-1.72 10.51 0 12.63 4.93 4.21 9.8-2.75 21.43-12.87 23.59-4.5.75-8.05-3.64-9.14-7.54-1.32-3.52-.37-6.69.38-10.2 1.33-4.84 3.99-9.15 9-10.78Z" fill="#000"/><path d="M654.5 217.58c5.87-1.75 13.15.29 15.27 6.54.85 3.85-2.26 6.53-5.7 7.26-5.36 1.32-12.45-1.57-13.86-7.29-.55-3.08 1.59-5.43 4.29-6.51ZM357.52 219.65c2.5-1.17 4.8-.75 6.18 1.74 2.78 5.83-2 13.65-7.87 15.37-1.79.72-2.84-1.59-3.25-2.94-1.41-4.89-.11-11.87 4.94-14.17Z" fill="#F0DF83"/><path d="M716.54 220.53c2.36-2.56 5.95-.8 8.52.43 6.98 3.92 12.76 11.23 14.61 19.05.71 2.27-.32 6.12 2.47 6.92 1.58 1.04 3.6-1.3 3.58-2.92.52-5.86.75-11.4 3.51-16.75 1.44-3.15 3.64-4.9 6.75-6.27 5.74 1.97 8.22 7.41 9.09 13 .61 5.67-1.42 11.65-5.09 15.98-1.19 1.71-2.84 2.74-2.49 5.07.94 1.21 1.91 2.12 3.56 1.74 4.15-1.18 7.46-3.19 11.99-2.96 4.55.07 8.1 3.03 10.52 6.65 2.41 3.71 4.15 8.07 2.26 12.43-2.3 4.18-7.22 6.32-11.88 5.88-4.2-.33-7.19-2.56-10.9-3.97-1.84-.37-3.39 1.46-3.23 3.17-.11 1.31 1.19 2.34 1.91 3.34 2.78 3.09 5.29 7.46 5.34 11.7-.64 7.19-6.89 13.67-14.04 14.55-2.93.33-5.07-1.79-6.62-3.99-2.76-4.25-3.41-9.62-5.19-13.86-1.15-2.33-4.98-1.9-5.43.82-2.18 6.6-5.56 12.51-12.3 15.21-2.62 1.03-5.08-.53-7.08-2.1-3.35-2.98-6.37-6.94-6.36-11.62-.32-4.18 1.83-8.42 4.53-11.49 1.81-2.11 4.11-3.05 6.21-4.76 1.83-1.78-.28-5.11-2.71-4.33-7.47 2.19-15.09 1.49-22.5-.51 3.61-2.01 6.98-3.71 8.69-7.73 2.62-6.47 1.01-13.47-2.49-19.27 5.52 3.18 10.76 6.58 15.64 10.69 1.69 1.4 4.1 2.68 5.86.62 1.58-1.96-.25-3.55-1.72-4.78-5.56-4.27-10.81-8.62-14.53-14.66 3.3-1.67 6.26-3.4 7.97-6.83 1.47-2.74 1.06-5.45 1.55-8.45Z" fill="#fff"/><path d="M397.769 228.67c3.18 1.83 6.48 3.83 10.16 4.45 4.52.69 8.87.23 13.34-.52-3.17 2.98-4.76 6.89-7.36 10.23-7.34 5.08-18.94 4.8-27.47 6.88 2.45-7.15 5.44-15.98 11.33-21.04Z" fill="#A0CC59"/><path d="M514.62 241.37c1.57 4.59 3.61 9.43 8.07 11.91 7.84 3.75 16.55 2.4 24.03-1.49 3.7-2.08 5.85-5.39 7.74-9.06 4.35 10.09 14.44 16.88 25.58 15.97 8.85-1.02 15.62-7.44 18.02-15.89 1.97 1.16 3.96 2.24 6.01 3.26-3.27 7.39-4.08 14.95-5.03 22.88-.23 4.02-.35 8.09-.1 12.1.25 2.23 1.22 5.28 4.06 4.86 3.44-.97 6.47-3.07 10.03-3.88 7.15-1.82 12.98-6.3 17.51-12.01 1.82 5.71 5.3 10.49 11.37 11.98 6.27 1.02 14.35-.23 18-6.05 3.62-5.53 5.5-12.34 5.89-18.89 4.48 8.47 12 16.57 22.39 15.95 6.31 4.34 13.75 5 21.19 5.23-4.64 5.8-5.97 13.14-3.73 20.22 1.8 4.27 5.11 8.32 8.91 10.98 3.18 2.41 7.73 2.79 11.45 1.58 5.45-2.15 9.17-6.3 12.16-11.2 1.28 2.93 2.47 6.02 4.5 8.52 1.6 2.06 3.89 3.33 6.04 4.73 4.27 11.84 8.97 23.48 12.9 35.43 11.97 35.68 20.23 72.79 25.55 110.02.56 4.23.95 8.48 1.84 12.66-10.47-10.92-25.49-17.44-40.65-17.12.76-5.37 1.74-10.69 2.65-16.03.35-2.01-.56-3.45-1.24-5.24-3.28.65-3.54 1.33-4.42 4.43-3.32 17.13-5.12 34.6-8.26 51.78-5.55 31.92-14.94 62.12-25.26 92.76-10.06 29.61-21.16 58.33-36.19 85.84-6.37 12.17-13.45 23.79-21.25 35.1 6.37-18.12 11.2-36.81 14.64-55.7 6.97-35.64 9.93-72.74 11.51-108.99.88-7.66.39-15.32.94-23 .37-21.95.49-43.97-.09-65.91 4.17 1.69 8.29 3.83 12.64 5.03 2.08.11 3.92-2.83 2.2-4.36-2.24-2.16-5.88-3.06-8.68-4.34-13.47-5.56-27.3-10.04-41.15-14.58-4.18-15.91-11.42-29.7-18.64-44.41-.94-1.69-2.19-4.58-4.59-4.07-1.76.04-2.52 2.12-2.18 3.59 2.82 12.56 5.92 27.32 2.92 40.06-9.96-1.26-19.89-2.39-29.94-2.5-.03-5.88-.68-11.68-1.26-17.53-1.83-16.53-7.2-31.65-13.9-46.76-2.16-4.71-4.55-9.3-7.47-13.59-1.63-2.18-1.7-5.01-2.15-7.62-.74-6.46-2.02-12.8-3.15-19.2-.62-3.09-1.05-6.68-2.62-9.44-1.31-1.13-3.7-.97-4.47.69-.49 1.45.07 3.24.31 4.71 4.55 21.11 7.11 42.61 6.64 64.22.3 12.56-.69 25.06-2.81 37.44-8.04-.84-15.97-1.91-24.08-1.77-14.88.28-29.73 2.29-44.57 3.32-2.31-12.58-3.75-25.26-5.08-37.98-1.75-20.14-2.58-42.09-6.26-62.02-.36-4.07-5.64-4.96-6.73-.8-5.28 18.03-7.64 37.12-9.37 55.78-.88 14.78-1.04 29.64-.56 44.45-12.84-.18-25.58-1.59-38.43-1.61-12.74-.06-25.16-1.6-37.89-.65-9.68-14.96-14.07-32.62-15.93-50.17-1.48-10.34-1.51-20.59-1.24-31.01 1.14-17.14 7.14-32.72 15.43-47.61.98-1.75 2.24-3.53 2.81-5.46-.22-2.08-1.64-2.47-3.18-3.47-1.56 1.35-3.01 2.72-4.05 4.53-6.42 10.56-12.26 21.68-16.63 33.26-7.27 19.45-11.67 40.03-12.77 60.77-.86 7.69-.46 15.32.09 23.01.16 5.7.55 11.32 1.61 16.92-10.53.04-21.37-.41-31.8 1.06-4-12.01-4.49-24.46-3.35-36.99.93-8.7 2.52-17.17 5.4-25.46.73-2.14 1.72-4.28 2.15-6.5.14-3.2-4.59-3.73-5.5-.89-2.65 5.99-4.44 12.46-5.78 18.86-3.31 16.95-4.07 36.01 1.53 52.55-4.64 3.6-9.03 7.53-13.55 11.29-4.13-8.08-7.8-16.29-10.15-25.08-5.72-20.34-5.38-42.24.37-62.54 5.91-21.23 17.81-40.82 32.86-56.81 14.95-15.85 32.97-28.35 52.7-37.52-.4 2.74-3.34 8.26.76 9.37 3.72-1.03 7.19-2.56 11.08-2.97 6.37-.73 12.62-1.54 18.68-3.75.43 2.51.56 5.61 1.94 7.81 2.09 3.68 6.29 5.65 10.41 5.79 3.31-.14 6.52-1.12 9.4-2.75 6.34-3.59 11.49-8.41 16.38-13.73.14 4.03.22 7.8 2.04 11.49 1.76 3.35 3.03 6.67 6.49 8.59 7.8 5.2 17.39 5.51 26.14 2.71 3.52-1.15 6.51-3.46 7.97-6.93 2.41-5.6 1.77-12.5-.37-18.1 7.68 1.15 15.83-.1 22.57-4.06Z" fill="rgba(175, 175, 175, 1)"/><path d="M635.121 242.52c-3.19 6.27-5.45 12.72-5.44 19.85-3.22 3.78-5.53 7.68-9.79 10.49-4.88 3.59-10.08 3.84-15.5 6.33.65-10.05.59-22.67 5.75-31.61 3.81.09 7.89.43 11.65-.27 4.74-.98 8.95-2.83 13.33-4.79Z" fill="#A0CC59"/><path d="M736.451 252.48c7.18-1.83 15.52 1.6 18.36 8.68 2.1 4.79 2.16 12.03-1.73 15.96-2.94 3.12-7.28 2.85-11.1 1.87-4.07-1.41-8.49-3.41-10.65-7.36-2.12-3.86-3.51-8.69-1.65-12.92.9-2.98 4.04-5.09 6.77-6.23Z" fill="#000"/><path d="M320.421 254.27c1.97-.31 4.13 1.59 6.05 2.07 4.03 1.45 7.42-.37 11.04-1.94.02 4.41 1.36 7.7 3.64 11.37-9.75 7.85-18.43 16.55-26.21 26.36-1.87-4.37-1.23-9.57 2.37-12.83 2.25-2.21 5.58-2.35 8.34-3.6 1.65-1.02 1.9-4.42-.14-5.15-2.09-1.37-4.12-2.32-5.43-4.59-2.16-3.15-2.5-8.87.34-11.69Z" fill="#fff"/><path d="M737.57 257.79c2.61-1.14 6.01-.19 8.37 1.19 3.12 1.71 4.59 5.65 4.84 9.02-.1 1.85-.87 5.12-2.88 5.78-3.06.54-6.51-1.08-9.11-2.58-3.07-1.82-3.41-5.18-4.46-8.27.88-1.8 1.29-4.2 3.24-5.14Z" fill="#F0DF83"/><path d="M782.229 283.03c2-1.02 3.92 1.16 5.43 2.3 3.76 3.71 4.681 11.21.901 15.22-3.64 3.25-8.76 3.85-13.44 3.96-2.41-.13-3.63 2.36-3.44 4.49 1.84 3.24 4.58 5.67 6 9.23 1.5 3.8 1.84 8.66 0 12.39-1.61 3.33-6.271 4.64-9.641 5.19-1.93 0-4.279.7-5.159-1.57-2.8-6.9-5.27-13.95-7.86-20.94 8.65-2.13 16.389-9.2 17.529-18.3.62-3.9-.469-7.42-1.929-10.98 3.97.21 7.769.22 11.609-.99Z" fill="#fff"/><path d="M292.469 415.26c2.56 6.81 5.52 13.7 9.45 19.84 1.38 1.95 2.69 1.56 4.87 1.46-6.1 38.43-1.42 78.68 12.73 114.91 12.52 31.99 32.48 61.02 57.9 84.13 37.68 34.37 87.6 55.47 138.59 57.82 8.35.91 16.69.81 25.04-.07 20.03-.85 39.98-4.99 58.98-11.33 22.39-7.7 43.97-18.78 62.7-33.31-.8 4.98-1.97 9.87-3.07 14.79-4.51 18.95-10.1 38.72-19.15 56.03-.63 1.49-1.85 3.52-1.22 5.14.84 1.57 2.03 1.87 3.72 1.54 1.65-1.36 2.96-3.21 4.29-4.88 10.9-14.28 21.27-28.34 29.81-44.21 8.1-14.66 15.68-29.59 22.06-45.1 7.15-16.77 13.23-33.91 19.18-51.14 12.6 3.76 25.86 4.46 38.61 1 15.38-4.13 28.69-14.21 36.91-27.83-.25 10.05.35 19.94-.75 29.96a547.782 547.782 0 0 1-9.58 83.03c-7.33 36.96-19.08 75.15-38.87 107.46.85-5.11 1.71-10.31 1.99-15.49.64-11.63 1.03-23.44-.13-35.04-1.25-9.88-3.35-19.66-6.13-29.22-.38-2.84-4.53-3.5-5.92-1.23-1.88 2.96-2.65 6.71-3.94 9.98-4.56 12.9-12.74 24.16-21.44 34.58-10.86 12.44-23.32 24.04-37.64 32.4-8.14 4.88-17.52 8.03-26.69 10.32-12.64 2.9-25.88 3.88-38.79 2.39-24.94-2.52-48.74-12.22-72.48-16.82-17.63-3.64-35.49-5.49-53.5-5.29-8.91.11-17.96-.36-26.81.57-22.12.99-44.22 2.93-66.19 5.56-13.43 1.34-26.74 3.66-40.14 5.17-7.73-17-15.63-34.65-20.66-52.59-7.35-26.24-11.37-53.51-12.33-80.73-1.02-.69-2.35-2.45-3.71-1.84-1.77.29-2.3 2.51-2.81 3.96-3.19 11.05-5.13 22.26-6.8 33.62-4.44 25.16-5.02 50.76-2.68 76.16-3.63-8.67-6.42-17.93-9.2-26.91-4.03-13.47-7.49-27.19-10.05-41.02-2.3-12.44-3.64-25.25-4.72-37.84-.93-6.05-1.04-12.12-1.23-18.22-1.19-15.97-1.36-31.96-1.55-47.97.1-8 .39-15.99.37-24 .43-10.32 1.19-20.65 1.65-30.99.6-5.68 1.24-11.32 1.6-17.02 2.62-26.28 7.57-52.45 14.22-78 1.18-4.59 2.64-9.06 3.51-13.73Z" fill="rgba(175, 175, 175, 1)"/></g></g><div xmlns="" id="divScriptsUsed" style="display: none"/><script xmlns="" id="globalVarsDetection" src="moz-extension://921c6708-5ba2-4abb-be4d-4e41fb32e323/js/wrs_env.js"/></svg>